<mxfile host="app.diagrams.net" agent="Mozilla/5.0 (Windows NT 10.0; Win64; x64) AppleWebKit/537.36 (KHTML, like Gecko) Chrome/128.0.0.0 Safari/537.36" version="24.7.13">
  <diagram name="Page-1" id="4QaY3YXRdvVaQoxulDOZ">
    <mxGraphModel dx="2074" dy="1098" grid="1" gridSize="10" guides="1" tooltips="1" connect="1" arrows="1" fold="1" page="1" pageScale="1" pageWidth="850" pageHeight="1100" math="0" shadow="0">
      <root>
        <mxCell id="0" />
        <mxCell id="1" parent="0" />
        <mxCell id="Sc5ewom0G_OlZY3W6DTB-54" value="" style="group;strokeColor=default;" parent="1" vertex="1" connectable="0">
          <mxGeometry x="20" y="10" width="520" height="300" as="geometry" />
        </mxCell>
        <mxCell id="Sc5ewom0G_OlZY3W6DTB-51" value="Login Fail" style="rhombus;whiteSpace=wrap;html=1;movable=0;resizable=0;rotatable=0;deletable=0;editable=0;locked=1;connectable=0;" parent="Sc5ewom0G_OlZY3W6DTB-54" vertex="1">
          <mxGeometry x="390" y="220" width="80" height="80" as="geometry" />
        </mxCell>
        <mxCell id="Sc5ewom0G_OlZY3W6DTB-53" value="" style="group" parent="Sc5ewom0G_OlZY3W6DTB-54" vertex="1" connectable="0">
          <mxGeometry width="520" height="220" as="geometry" />
        </mxCell>
        <mxCell id="Sc5ewom0G_OlZY3W6DTB-30" value="&lt;h1 style=&quot;margin-top: 0px;&quot;&gt;Process 1: User Registration/Login&lt;/h1&gt;" style="text;html=1;whiteSpace=wrap;overflow=hidden;rounded=0;movable=1;resizable=1;rotatable=1;deletable=1;editable=1;locked=0;connectable=1;" parent="Sc5ewom0G_OlZY3W6DTB-53" vertex="1">
          <mxGeometry x="20" y="10" width="220" height="120" as="geometry" />
        </mxCell>
        <mxCell id="Sc5ewom0G_OlZY3W6DTB-33" style="edgeStyle=orthogonalEdgeStyle;rounded=0;orthogonalLoop=1;jettySize=auto;html=1;exitX=1;exitY=0.5;exitDx=0;exitDy=0;entryX=0;entryY=0.5;entryDx=0;entryDy=0;movable=1;resizable=1;rotatable=1;deletable=1;editable=1;locked=0;connectable=1;" parent="Sc5ewom0G_OlZY3W6DTB-53" source="Sc5ewom0G_OlZY3W6DTB-31" target="Sc5ewom0G_OlZY3W6DTB-32" edge="1">
          <mxGeometry relative="1" as="geometry" />
        </mxCell>
        <mxCell id="Sc5ewom0G_OlZY3W6DTB-31" value="User" style="rounded=0;whiteSpace=wrap;html=1;movable=1;resizable=1;rotatable=1;deletable=1;editable=1;locked=0;connectable=1;" parent="Sc5ewom0G_OlZY3W6DTB-53" vertex="1">
          <mxGeometry y="110" width="120" height="60" as="geometry" />
        </mxCell>
        <mxCell id="Sc5ewom0G_OlZY3W6DTB-38" style="edgeStyle=orthogonalEdgeStyle;rounded=0;orthogonalLoop=1;jettySize=auto;html=1;exitX=1;exitY=0.5;exitDx=0;exitDy=0;entryX=0.5;entryY=1;entryDx=0;entryDy=0;entryPerimeter=0;movable=1;resizable=1;rotatable=1;deletable=1;editable=1;locked=0;connectable=1;" parent="Sc5ewom0G_OlZY3W6DTB-53" target="Sc5ewom0G_OlZY3W6DTB-48" edge="1">
          <mxGeometry relative="1" as="geometry">
            <mxPoint x="425" y="80" as="targetPoint" />
            <mxPoint x="305" y="130" as="sourcePoint" />
          </mxGeometry>
        </mxCell>
        <mxCell id="Sc5ewom0G_OlZY3W6DTB-39" style="edgeStyle=orthogonalEdgeStyle;rounded=0;orthogonalLoop=1;jettySize=auto;html=1;exitX=1;exitY=0.5;exitDx=0;exitDy=0;movable=1;resizable=1;rotatable=1;deletable=1;editable=1;locked=0;connectable=1;" parent="Sc5ewom0G_OlZY3W6DTB-53" edge="1">
          <mxGeometry relative="1" as="geometry">
            <mxPoint x="429" y="220" as="targetPoint" />
            <mxPoint x="359" y="170" as="sourcePoint" />
            <Array as="points">
              <mxPoint x="430" y="170" />
            </Array>
          </mxGeometry>
        </mxCell>
        <mxCell id="Sc5ewom0G_OlZY3W6DTB-32" value="Registration and Authentication (User credentials DB)" style="ellipse;whiteSpace=wrap;html=1;aspect=fixed;movable=1;resizable=1;rotatable=1;deletable=1;editable=1;locked=0;connectable=1;" parent="Sc5ewom0G_OlZY3W6DTB-53" vertex="1">
          <mxGeometry x="260" y="90" width="100" height="100" as="geometry" />
        </mxCell>
        <mxCell id="Sc5ewom0G_OlZY3W6DTB-35" value="Account Credentials" style="text;html=1;align=center;verticalAlign=middle;resizable=1;points=[];autosize=1;movable=1;rotatable=1;deletable=1;editable=1;locked=0;connectable=1;" parent="Sc5ewom0G_OlZY3W6DTB-53" vertex="1">
          <mxGeometry x="120" y="120" width="130" height="30" as="geometry" />
        </mxCell>
        <mxCell id="Sc5ewom0G_OlZY3W6DTB-41" value="Valid Creds" style="text;html=1;align=center;verticalAlign=middle;resizable=1;points=[];autosize=1;movable=1;rotatable=1;deletable=1;editable=1;locked=0;connectable=1;" parent="Sc5ewom0G_OlZY3W6DTB-53" vertex="1">
          <mxGeometry x="425" y="100" width="80" height="30" as="geometry" />
        </mxCell>
        <mxCell id="Sc5ewom0G_OlZY3W6DTB-45" value="Invalid Creds" style="text;html=1;align=center;verticalAlign=middle;resizable=1;points=[];autosize=1;movable=1;rotatable=1;deletable=1;editable=1;locked=0;connectable=1;" parent="Sc5ewom0G_OlZY3W6DTB-53" vertex="1">
          <mxGeometry x="430" y="178" width="90" height="30" as="geometry" />
        </mxCell>
        <mxCell id="Sc5ewom0G_OlZY3W6DTB-48" value="Login" style="rhombus;whiteSpace=wrap;html=1;movable=1;resizable=1;rotatable=1;deletable=1;editable=1;locked=0;connectable=1;" parent="Sc5ewom0G_OlZY3W6DTB-53" vertex="1">
          <mxGeometry x="390" width="80" height="80" as="geometry" />
        </mxCell>
        <mxCell id="Sc5ewom0G_OlZY3W6DTB-77" value="" style="group" parent="1" vertex="1" connectable="0">
          <mxGeometry x="20" y="330" width="520" height="190" as="geometry" />
        </mxCell>
        <mxCell id="Sc5ewom0G_OlZY3W6DTB-70" value="Recipe Database" style="ellipse;whiteSpace=wrap;html=1;rounded=0;container=0;" parent="Sc5ewom0G_OlZY3W6DTB-77" vertex="1">
          <mxGeometry x="265.09803921568624" y="85" width="101.96078431372548" height="100" as="geometry" />
        </mxCell>
        <mxCell id="Sc5ewom0G_OlZY3W6DTB-75" value="" style="group;strokeColor=default;container=0;" parent="Sc5ewom0G_OlZY3W6DTB-77" vertex="1" connectable="0">
          <mxGeometry width="520" height="190" as="geometry" />
        </mxCell>
        <mxCell id="Sc5ewom0G_OlZY3W6DTB-71" value="" style="edgeStyle=orthogonalEdgeStyle;rounded=0;orthogonalLoop=1;jettySize=auto;html=1;" parent="Sc5ewom0G_OlZY3W6DTB-77" source="Sc5ewom0G_OlZY3W6DTB-68" target="Sc5ewom0G_OlZY3W6DTB-70" edge="1">
          <mxGeometry relative="1" as="geometry" />
        </mxCell>
        <mxCell id="Sc5ewom0G_OlZY3W6DTB-74" value="" style="edgeStyle=orthogonalEdgeStyle;rounded=0;orthogonalLoop=1;jettySize=auto;html=1;" parent="Sc5ewom0G_OlZY3W6DTB-77" source="Sc5ewom0G_OlZY3W6DTB-70" target="Sc5ewom0G_OlZY3W6DTB-73" edge="1">
          <mxGeometry relative="1" as="geometry" />
        </mxCell>
        <mxCell id="Sc5ewom0G_OlZY3W6DTB-52" value="&lt;h1 style=&quot;margin-top: 0px;&quot;&gt;Process 2: Recipe Browsing&lt;/h1&gt;" style="text;html=1;whiteSpace=wrap;overflow=hidden;rounded=0;container=0;" parent="Sc5ewom0G_OlZY3W6DTB-77" vertex="1">
          <mxGeometry x="10.196078431372548" width="305.88235294117646" height="70" as="geometry" />
        </mxCell>
        <mxCell id="Sc5ewom0G_OlZY3W6DTB-68" value="User" style="rounded=0;whiteSpace=wrap;html=1;container=0;" parent="Sc5ewom0G_OlZY3W6DTB-77" vertex="1">
          <mxGeometry y="105" width="122.35294117647058" height="60" as="geometry" />
        </mxCell>
        <mxCell id="Sc5ewom0G_OlZY3W6DTB-72" value="Browsing" style="text;html=1;align=center;verticalAlign=middle;resizable=0;points=[];autosize=1;strokeColor=none;fillColor=none;container=0;" parent="Sc5ewom0G_OlZY3W6DTB-77" vertex="1">
          <mxGeometry x="152.94117647058823" y="110" width="70" height="30" as="geometry" />
        </mxCell>
        <mxCell id="Sc5ewom0G_OlZY3W6DTB-73" value="Recipes&lt;div&gt;Displayed&lt;/div&gt;" style="rhombus;whiteSpace=wrap;html=1;rounded=0;container=0;" parent="Sc5ewom0G_OlZY3W6DTB-77" vertex="1">
          <mxGeometry x="438.43137254901956" y="95" width="81.56862745098039" height="80" as="geometry" />
        </mxCell>
        <mxCell id="Sc5ewom0G_OlZY3W6DTB-79" value="" style="group" parent="1" vertex="1" connectable="0">
          <mxGeometry x="20" y="540" width="520" height="190" as="geometry" />
        </mxCell>
        <mxCell id="Sc5ewom0G_OlZY3W6DTB-80" value="Recipe Database" style="ellipse;whiteSpace=wrap;html=1;rounded=0;container=0;" parent="Sc5ewom0G_OlZY3W6DTB-79" vertex="1">
          <mxGeometry x="265.09803921568624" y="85" width="101.96078431372548" height="100" as="geometry" />
        </mxCell>
        <mxCell id="Sc5ewom0G_OlZY3W6DTB-81" value="" style="group;strokeColor=default;container=0;" parent="Sc5ewom0G_OlZY3W6DTB-79" vertex="1" connectable="0">
          <mxGeometry width="520" height="190" as="geometry" />
        </mxCell>
        <mxCell id="Sc5ewom0G_OlZY3W6DTB-82" value="" style="edgeStyle=orthogonalEdgeStyle;rounded=0;orthogonalLoop=1;jettySize=auto;html=1;" parent="Sc5ewom0G_OlZY3W6DTB-79" source="Sc5ewom0G_OlZY3W6DTB-85" target="Sc5ewom0G_OlZY3W6DTB-80" edge="1">
          <mxGeometry relative="1" as="geometry" />
        </mxCell>
        <mxCell id="Sc5ewom0G_OlZY3W6DTB-83" value="" style="edgeStyle=orthogonalEdgeStyle;rounded=0;orthogonalLoop=1;jettySize=auto;html=1;" parent="Sc5ewom0G_OlZY3W6DTB-79" source="Sc5ewom0G_OlZY3W6DTB-80" target="Sc5ewom0G_OlZY3W6DTB-87" edge="1">
          <mxGeometry relative="1" as="geometry" />
        </mxCell>
        <mxCell id="Sc5ewom0G_OlZY3W6DTB-84" value="&lt;h1 style=&quot;margin-top: 0px;&quot;&gt;Process 3: Recipe Submission&lt;/h1&gt;" style="text;html=1;whiteSpace=wrap;overflow=hidden;rounded=0;container=0;" parent="Sc5ewom0G_OlZY3W6DTB-79" vertex="1">
          <mxGeometry x="10.196078431372548" width="305.88235294117646" height="70" as="geometry" />
        </mxCell>
        <mxCell id="Sc5ewom0G_OlZY3W6DTB-85" value="User" style="rounded=0;whiteSpace=wrap;html=1;container=0;" parent="Sc5ewom0G_OlZY3W6DTB-79" vertex="1">
          <mxGeometry y="105" width="122.35294117647058" height="60" as="geometry" />
        </mxCell>
        <mxCell id="Sc5ewom0G_OlZY3W6DTB-86" value="Submit Recipe" style="text;html=1;align=center;verticalAlign=middle;resizable=0;points=[];autosize=1;strokeColor=none;fillColor=none;container=0;" parent="Sc5ewom0G_OlZY3W6DTB-79" vertex="1">
          <mxGeometry x="138.94117647058823" y="110" width="100" height="30" as="geometry" />
        </mxCell>
        <mxCell id="Sc5ewom0G_OlZY3W6DTB-87" value="Recipes&lt;div&gt;Stored/&lt;/div&gt;&lt;div&gt;Saved&lt;/div&gt;" style="rhombus;whiteSpace=wrap;html=1;rounded=0;container=0;" parent="Sc5ewom0G_OlZY3W6DTB-79" vertex="1">
          <mxGeometry x="438.43137254901956" y="95" width="81.56862745098039" height="80" as="geometry" />
        </mxCell>
        <mxCell id="Sc5ewom0G_OlZY3W6DTB-88" value="" style="group" parent="1" vertex="1" connectable="0">
          <mxGeometry x="20" y="750" width="520" height="190" as="geometry" />
        </mxCell>
        <mxCell id="Sc5ewom0G_OlZY3W6DTB-89" value="Recipe Comments&lt;div&gt;Database&lt;/div&gt;" style="ellipse;whiteSpace=wrap;html=1;rounded=0;container=0;" parent="Sc5ewom0G_OlZY3W6DTB-88" vertex="1">
          <mxGeometry x="265.09803921568624" y="85" width="101.96078431372548" height="100" as="geometry" />
        </mxCell>
        <mxCell id="Sc5ewom0G_OlZY3W6DTB-90" value="" style="group;strokeColor=default;container=0;" parent="Sc5ewom0G_OlZY3W6DTB-88" vertex="1" connectable="0">
          <mxGeometry width="520" height="190" as="geometry" />
        </mxCell>
        <mxCell id="Sc5ewom0G_OlZY3W6DTB-91" value="" style="edgeStyle=orthogonalEdgeStyle;rounded=0;orthogonalLoop=1;jettySize=auto;html=1;" parent="Sc5ewom0G_OlZY3W6DTB-88" source="Sc5ewom0G_OlZY3W6DTB-94" target="Sc5ewom0G_OlZY3W6DTB-89" edge="1">
          <mxGeometry relative="1" as="geometry" />
        </mxCell>
        <mxCell id="Sc5ewom0G_OlZY3W6DTB-92" value="" style="edgeStyle=orthogonalEdgeStyle;rounded=0;orthogonalLoop=1;jettySize=auto;html=1;" parent="Sc5ewom0G_OlZY3W6DTB-88" source="Sc5ewom0G_OlZY3W6DTB-89" target="Sc5ewom0G_OlZY3W6DTB-96" edge="1">
          <mxGeometry relative="1" as="geometry" />
        </mxCell>
        <mxCell id="Sc5ewom0G_OlZY3W6DTB-93" value="&lt;h1 style=&quot;margin-top: 0px;&quot;&gt;Process 4: Recipe Rating&lt;/h1&gt;" style="text;html=1;whiteSpace=wrap;overflow=hidden;rounded=0;container=0;" parent="Sc5ewom0G_OlZY3W6DTB-88" vertex="1">
          <mxGeometry x="10.196078431372548" width="305.88235294117646" height="70" as="geometry" />
        </mxCell>
        <mxCell id="Sc5ewom0G_OlZY3W6DTB-94" value="User" style="rounded=0;whiteSpace=wrap;html=1;container=0;" parent="Sc5ewom0G_OlZY3W6DTB-88" vertex="1">
          <mxGeometry y="105" width="122.35294117647058" height="60" as="geometry" />
        </mxCell>
        <mxCell id="Sc5ewom0G_OlZY3W6DTB-95" value="Submits Rating" style="text;html=1;align=center;verticalAlign=middle;resizable=0;points=[];autosize=1;strokeColor=none;fillColor=none;container=0;" parent="Sc5ewom0G_OlZY3W6DTB-88" vertex="1">
          <mxGeometry x="138.94117647058823" y="110" width="100" height="30" as="geometry" />
        </mxCell>
        <mxCell id="Sc5ewom0G_OlZY3W6DTB-96" value="Ratings&lt;div&gt;Aggregated/&lt;/div&gt;&lt;div&gt;Displayed&lt;/div&gt;" style="rhombus;whiteSpace=wrap;html=1;rounded=0;container=0;" parent="Sc5ewom0G_OlZY3W6DTB-88" vertex="1">
          <mxGeometry x="438.43137254901956" y="95" width="81.56862745098039" height="80" as="geometry" />
        </mxCell>
        <mxCell id="Sc5ewom0G_OlZY3W6DTB-97" value="" style="group" parent="1" vertex="1" connectable="0">
          <mxGeometry x="20" y="960" width="520" height="190" as="geometry" />
        </mxCell>
        <mxCell id="Sc5ewom0G_OlZY3W6DTB-98" value="Recipe Comments&lt;div&gt;Database&lt;/div&gt;" style="ellipse;whiteSpace=wrap;html=1;rounded=0;container=0;" parent="Sc5ewom0G_OlZY3W6DTB-97" vertex="1">
          <mxGeometry x="265.09803921568624" y="85" width="101.96078431372548" height="100" as="geometry" />
        </mxCell>
        <mxCell id="Sc5ewom0G_OlZY3W6DTB-99" value="" style="group;strokeColor=default;container=0;" parent="Sc5ewom0G_OlZY3W6DTB-97" vertex="1" connectable="0">
          <mxGeometry width="520" height="190" as="geometry" />
        </mxCell>
        <mxCell id="Sc5ewom0G_OlZY3W6DTB-100" value="" style="edgeStyle=orthogonalEdgeStyle;rounded=0;orthogonalLoop=1;jettySize=auto;html=1;" parent="Sc5ewom0G_OlZY3W6DTB-97" source="Sc5ewom0G_OlZY3W6DTB-103" target="Sc5ewom0G_OlZY3W6DTB-98" edge="1">
          <mxGeometry relative="1" as="geometry" />
        </mxCell>
        <mxCell id="Sc5ewom0G_OlZY3W6DTB-101" value="" style="edgeStyle=orthogonalEdgeStyle;rounded=0;orthogonalLoop=1;jettySize=auto;html=1;" parent="Sc5ewom0G_OlZY3W6DTB-97" source="Sc5ewom0G_OlZY3W6DTB-98" target="Sc5ewom0G_OlZY3W6DTB-105" edge="1">
          <mxGeometry relative="1" as="geometry" />
        </mxCell>
        <mxCell id="Sc5ewom0G_OlZY3W6DTB-102" value="&lt;h1 style=&quot;margin-top: 0px;&quot;&gt;Process 5: Recipe Commenting&lt;/h1&gt;" style="text;html=1;whiteSpace=wrap;overflow=hidden;rounded=0;container=0;" parent="Sc5ewom0G_OlZY3W6DTB-97" vertex="1">
          <mxGeometry x="10.2" width="409.8" height="70" as="geometry" />
        </mxCell>
        <mxCell id="Sc5ewom0G_OlZY3W6DTB-103" value="User" style="rounded=0;whiteSpace=wrap;html=1;container=0;" parent="Sc5ewom0G_OlZY3W6DTB-97" vertex="1">
          <mxGeometry y="105" width="122.35294117647058" height="60" as="geometry" />
        </mxCell>
        <mxCell id="Sc5ewom0G_OlZY3W6DTB-104" value="Submits Comments" style="text;html=1;align=center;verticalAlign=middle;resizable=0;points=[];autosize=1;strokeColor=none;fillColor=none;container=0;" parent="Sc5ewom0G_OlZY3W6DTB-97" vertex="1">
          <mxGeometry x="123.94117647058823" y="110" width="130" height="30" as="geometry" />
        </mxCell>
        <mxCell id="Sc5ewom0G_OlZY3W6DTB-105" value="Comments&lt;div&gt;Displayed&lt;/div&gt;" style="rhombus;whiteSpace=wrap;html=1;rounded=0;container=0;" parent="Sc5ewom0G_OlZY3W6DTB-97" vertex="1">
          <mxGeometry x="438.43137254901956" y="95" width="81.56862745098039" height="80" as="geometry" />
        </mxCell>
        <mxCell id="Sc5ewom0G_OlZY3W6DTB-106" value="" style="group" parent="1" vertex="1" connectable="0">
          <mxGeometry x="20" y="1180" width="520" height="190" as="geometry" />
        </mxCell>
        <mxCell id="Sc5ewom0G_OlZY3W6DTB-107" value="Payment Processing Service" style="ellipse;whiteSpace=wrap;html=1;rounded=0;container=0;" parent="Sc5ewom0G_OlZY3W6DTB-106" vertex="1">
          <mxGeometry x="265.09803921568624" y="85" width="101.96078431372548" height="100" as="geometry" />
        </mxCell>
        <mxCell id="Sc5ewom0G_OlZY3W6DTB-108" value="" style="group;strokeColor=default;container=0;" parent="Sc5ewom0G_OlZY3W6DTB-106" vertex="1" connectable="0">
          <mxGeometry width="520" height="190" as="geometry" />
        </mxCell>
        <mxCell id="Sc5ewom0G_OlZY3W6DTB-109" value="" style="edgeStyle=orthogonalEdgeStyle;rounded=0;orthogonalLoop=1;jettySize=auto;html=1;" parent="Sc5ewom0G_OlZY3W6DTB-106" source="Sc5ewom0G_OlZY3W6DTB-112" target="Sc5ewom0G_OlZY3W6DTB-107" edge="1">
          <mxGeometry relative="1" as="geometry" />
        </mxCell>
        <mxCell id="Sc5ewom0G_OlZY3W6DTB-110" value="" style="edgeStyle=orthogonalEdgeStyle;rounded=0;orthogonalLoop=1;jettySize=auto;html=1;" parent="Sc5ewom0G_OlZY3W6DTB-106" source="Sc5ewom0G_OlZY3W6DTB-107" target="Sc5ewom0G_OlZY3W6DTB-114" edge="1">
          <mxGeometry relative="1" as="geometry" />
        </mxCell>
        <mxCell id="Sc5ewom0G_OlZY3W6DTB-111" value="&lt;h1 style=&quot;margin-top: 0px;&quot;&gt;Process 6: Payment&lt;/h1&gt;" style="text;html=1;whiteSpace=wrap;overflow=hidden;rounded=0;container=0;" parent="Sc5ewom0G_OlZY3W6DTB-106" vertex="1">
          <mxGeometry x="10.2" width="409.8" height="70" as="geometry" />
        </mxCell>
        <mxCell id="Sc5ewom0G_OlZY3W6DTB-112" value="User" style="rounded=0;whiteSpace=wrap;html=1;container=0;" parent="Sc5ewom0G_OlZY3W6DTB-106" vertex="1">
          <mxGeometry y="105" width="122.35294117647058" height="60" as="geometry" />
        </mxCell>
        <mxCell id="Sc5ewom0G_OlZY3W6DTB-113" value="Submits Payment" style="text;html=1;align=center;verticalAlign=middle;resizable=0;points=[];autosize=1;strokeColor=none;fillColor=none;container=0;" parent="Sc5ewom0G_OlZY3W6DTB-106" vertex="1">
          <mxGeometry x="128.94117647058823" y="110" width="120" height="30" as="geometry" />
        </mxCell>
        <mxCell id="Sc5ewom0G_OlZY3W6DTB-114" value="Payment&lt;div&gt;Received&lt;/div&gt;" style="rhombus;whiteSpace=wrap;html=1;rounded=0;container=0;" parent="Sc5ewom0G_OlZY3W6DTB-106" vertex="1">
          <mxGeometry x="438.43137254901956" y="95" width="81.56862745098039" height="80" as="geometry" />
        </mxCell>
      </root>
    </mxGraphModel>
  </diagram>
</mxfile>
